<svg width="32" height="32" viewBox="0 0 32 32" fill="none" xmlns="http://www.w3.org/2000/svg">
  <defs>
    <linearGradient id="bg32" x1="0" y1="0" x2="32" y2="32">
      <stop offset="0%" stop-color="#25003e"/>
      <stop offset="100%" stop-color="#140021"/>
    </linearGradient>
    <linearGradient id="fg32" x1="0" y1="0" x2="32" y2="32">
      <stop offset="0%" stop-color="#ff7b02"/>
      <stop offset="100%" stop-color="#e5a55d"/>
    </linearGradient>
  </defs>
  <rect width="32" height="32" rx="7" fill="url(#bg32)"/>
  <rect width="32" height="32" rx="7" fill="none" stroke="#ff7b02" stroke-width="1.5" opacity="0.6"/>
  <path d="M5 8L5 24L8 24L8 18L12 18C15 18 17 16 17 13C17 10 15 8 12 8ZM8 11L12 11C13.5 11 14 12 14 13C14 14 13.5 15 12 15L8 15Z" fill="url(#fg32)"/>
  <path d="M18 8L18 11L21 11L21 24L24 24L24 11L27 11L27 8Z" fill="url(#fg32)"/>
  <path d="M5 27Q10 25.5 16 27T27 27" stroke="#ff7b02" stroke-width="1.5" fill="none" stroke-linecap="round" opacity="0.7"/>
</svg>
