<svg width="32" height="32" viewBox="0 0 32 32" fill="none" xmlns="http://www.w3.org/2000/svg">
  <defs>
    <linearGradient id="bg" x1="0" y1="0" x2="32" y2="32">
      <stop offset="0%" stop-color="#25003e"/>
      <stop offset="100%" stop-color="#140021"/>
    </linearGradient>
    <linearGradient id="fg" x1="0" y1="0" x2="32" y2="32">
      <stop offset="0%" stop-color="#ff7b02"/>
      <stop offset="100%" stop-color="#e5a55d"/>
    </linearGradient>
  </defs>

  <!-- Background rounded square -->
  <rect width="32" height="32" rx="7" fill="url(#bg)"/>
  <!-- Orange border accent -->
  <rect width="32" height="32" rx="7" fill="none" stroke="#ff7b02" stroke-width="1.5" opacity="0.6"/>

  <!-- P -->
  <path d="M 5 8 L 5 24 L 8 24 L 8 18 L 12 18 C 15 18 17 16 17 13 C 17 10 15 8 12 8 Z
           M 8 11 L 12 11 C 13.5 11 14 12 14 13 C 14 14 13.5 15 12 15 L 8 15 Z"
        fill="url(#fg)"/>

  <!-- T -->
  <path d="M 18 8 L 18 11 L 21 11 L 21 24 L 24 24 L 24 11 L 27 11 L 27 8 Z"
        fill="url(#fg)"/>

  <!-- Tiny chart accent line at bottom -->
  <path d="M 5 27 Q 10 25.5 16 27 T 27 27"
        stroke="#ff7b02" stroke-width="1.5" fill="none" stroke-linecap="round" opacity="0.7"/>
</svg>
